<svg width="1152" height="263" viewBox="0 0 1152 263" fill="none" xmlns="http://www.w3.org/2000/svg">
<g clip-path="url(#clip0)">
<path d="M-3 210.4L18.4156 214.801C39.751 218.988 82.8229 228.112 125.333 197.25C168.084 166.388 211.156 96.6123 253.667 61.3488C296.418 26.3 339.49 26.3 382 39.45C424.751 52.6 467.823 78.9 510.333 83.3013C553.084 87.4878 596.156 70.3123 638.667 61.3488C681.418 52.6 724.49 52.6 767 65.75C809.751 78.9 852.823 105.2 895.333 113.949C938.084 122.912 981.156 113.788 1023.67 118.35C1066.42 122.912 1109.49 140.088 1152 135.901C1194.75 131.5 1237.82 105.2 1280.33 105.2C1323.08 105.2 1366.16 131.5 1408.67 140.249C1451.42 149.212 1494.49 140.088 1537 149.051C1579.75 157.8 1622.82 184.1 1665.33 170.95C1708.08 157.8 1751.16 105.2 1793.67 105.2C1836.42 105.2 1879.49 157.8 1922 175.351C1964.75 192.688 2007.82 175.512 2050.33 170.95C2093.08 166.388 2136.16 175.512 2178.67 166.549C2221.42 157.8 2264.49 131.5 2307 105.2C2349.75 78.9 2392.82 52.6 2435.33 48.1988C2478.08 44.0123 2521.16 61.1878 2563.67 78.9C2606.42 96.6123 2649.49 113.788 2692 105.2C2734.75 96.6123 2777.82 61.1878 2820.33 70.1513C2863.08 78.9 2906.16 131.5 2948.67 166.549C2991.42 201.812 3034.49 218.988 3055.34 227.951L3077 236.7V263H3055.58C3034.25 263 2991.18 263 2948.67 263C2905.92 263 2862.84 263 2820.33 263C2777.58 263 2734.51 263 2692 263C2649.25 263 2606.18 263 2563.67 263C2520.92 263 2477.84 263 2435.33 263C2392.58 263 2349.51 263 2307 263C2264.25 263 2221.18 263 2178.67 263C2135.92 263 2092.84 263 2050.33 263C2007.58 263 1964.51 263 1922 263C1879.25 263 1836.18 263 1793.67 263C1750.92 263 1707.84 263 1665.33 263C1622.58 263 1579.51 263 1537 263C1494.25 263 1451.18 263 1408.67 263C1365.92 263 1322.84 263 1280.33 263C1237.58 263 1194.51 263 1152 263C1109.25 263 1066.18 263 1023.67 263C980.916 263 937.844 263 895.333 263C852.582 263 809.51 263 767 263C724.249 263 681.177 263 638.667 263C595.916 263 552.844 263 510.333 263C467.582 263 424.51 263 382 263C339.249 263 296.177 263 253.667 263C210.916 263 167.844 263 125.333 263C82.5823 263 39.5104 263 18.6562 263H-3V210.4Z" fill="url(#paint0_linear)"/>
<path opacity="0.9" d="M-3 52.6L18.4156 78.8999C39.751 105.2 82.8229 157.8 125.333 157.8C168.084 157.8 211.156 105.2 253.667 96.4512C296.418 87.4877 339.49 122.912 382 113.949C424.751 105.2 467.823 52.6 510.333 48.1987C553.084 44.0122 596.156 87.4877 638.667 127.099C681.418 166.388 724.49 201.812 767 188.501C809.751 175.512 852.823 113.788 895.333 87.6487C938.084 61.1877 981.156 70.3122 1023.67 78.8999C1066.42 87.4877 1109.49 96.6122 1152 113.949C1194.75 131.5 1237.82 157.8 1280.33 144.65C1323.08 131.5 1366.16 78.8999 1408.67 57.0012C1451.42 34.8877 1494.49 44.0122 1537 65.75C1579.75 87.4877 1622.82 122.912 1665.33 122.751C1708.08 122.912 1751.16 87.4877 1793.67 65.75C1836.42 44.0122 1879.49 34.8877 1922 65.75C1964.75 96.6122 2007.82 166.388 2050.33 179.699C2093.08 192.688 2136.16 149.212 2178.67 122.751C2221.42 96.6122 2264.49 87.4877 2307 87.6487C2349.75 87.4877 2392.82 96.6122 2435.33 122.751C2478.08 149.212 2521.16 192.688 2563.67 188.501C2606.42 184.1 2649.49 131.5 2692 92.0499C2734.75 52.6 2777.82 26.3 2820.33 48.1987C2863.08 70.3122 2906.16 140.088 2948.67 179.699C2991.42 218.988 3034.49 228.112 3055.34 232.299L3077 236.7V263H3055.58C3034.25 263 2991.18 263 2948.67 263C2905.92 263 2862.84 263 2820.33 263C2777.58 263 2734.51 263 2692 263C2649.25 263 2606.18 263 2563.67 263C2520.92 263 2477.84 263 2435.33 263C2392.58 263 2349.51 263 2307 263C2264.25 263 2221.18 263 2178.67 263C2135.92 263 2092.84 263 2050.33 263C2007.58 263 1964.51 263 1922 263C1879.25 263 1836.18 263 1793.67 263C1750.92 263 1707.84 263 1665.33 263C1622.58 263 1579.51 263 1537 263C1494.25 263 1451.18 263 1408.67 263C1365.92 263 1322.84 263 1280.33 263C1237.58 263 1194.51 263 1152 263C1109.25 263 1066.18 263 1023.67 263C980.916 263 937.844 263 895.333 263C852.582 263 809.51 263 767 263C724.249 263 681.177 263 638.667 263C595.916 263 552.844 263 510.333 263C467.582 263 424.51 263 382 263C339.249 263 296.177 263 253.667 263C210.916 263 167.844 263 125.333 263C82.5823 263 39.5104 263 18.6562 263H-3V52.6Z" fill="url(#paint1_linear)"/>
</g>
<defs>
<linearGradient id="paint0_linear" x1="-3" y1="263" x2="-3" y2="31.3572" gradientUnits="userSpaceOnUse">
<stop stop-color="#383E56"/>
</linearGradient>
<linearGradient id="paint1_linear" x1="-3" y1="263" x2="-3" y2="40.2643" gradientUnits="userSpaceOnUse">
<stop stop-color="#1DA1F2"/>
</linearGradient>
<clipPath id="clip0">
<rect width="1155" height="263" fill="white" transform="translate(-3)"/>
</clipPath>
</defs>
</svg>
